<svg width="24" height="24" viewBox="0 0 24 24" fill="none" xmlns="http://www.w3.org/2000/svg">
<path d="M5.87182 2.60176C5.8195 2.51473 5.78502 2.41815 5.7704 2.31765C5.75577 2.21716 5.76129 2.11476 5.78663 2.01642C5.81197 1.91808 5.85663 1.82577 5.918 1.74486C5.97937 1.66395 6.05623 1.59606 6.1441 1.54515C6.23197 1.49424 6.32909 1.46132 6.4298 1.44831C6.53052 1.43531 6.63282 1.44247 6.73074 1.46939C6.82866 1.49632 6.92024 1.54245 7.00015 1.60512C7.08006 1.66778 7.14671 1.74572 7.1962 1.8344L8.18169 3.53467C8.285 3.71055 8.31421 3.92027 8.26289 4.11769C8.21157 4.31511 8.08393 4.48405 7.90805 4.58736C7.73217 4.69067 7.52245 4.71988 7.32503 4.66856C7.12762 4.61724 6.95867 4.4896 6.85536 4.31372L5.87182 2.60176ZM11.9971 5.13367C13.5844 5.1349 15.1222 5.68642 16.3485 6.69428C17.5747 7.70214 18.4137 9.10399 18.7223 10.661C19.0309 12.218 18.7902 13.8339 18.0411 15.2333C17.2919 16.6327 16.0808 17.7291 14.614 18.3358C13.1472 18.9424 11.5154 19.0217 9.99667 18.5601C8.47794 18.0986 7.16621 17.1248 6.28495 15.8046C5.40368 14.4844 5.0074 12.8995 5.16362 11.3199C5.31983 9.74026 6.01888 8.26367 7.14166 7.14166C7.77835 6.50341 8.53489 5.99727 9.36781 5.65233C10.2007 5.3074 11.0936 5.13047 11.9951 5.13172L11.9971 5.13367ZM11.3855 0.808006C11.3803 0.703852 11.3963 0.599719 11.4325 0.501935C11.4688 0.40415 11.5245 0.314756 11.5964 0.239183C11.6682 0.16361 11.7547 0.103437 11.8505 0.06232C11.9464 0.0212028 12.0496 0 12.1539 0C12.2581 0 12.3613 0.0212028 12.4572 0.06232C12.553 0.103437 12.6395 0.16361 12.7114 0.239183C12.7832 0.314756 12.839 0.40415 12.8752 0.501935C12.9115 0.599719 12.9274 0.703852 12.9222 0.808006V2.76731C12.9274 2.87146 12.9115 2.9756 12.8752 3.07338C12.839 3.17117 12.7832 3.26056 12.7114 3.33613C12.6395 3.41171 12.553 3.47188 12.4572 3.513C12.3613 3.55411 12.2581 3.57532 12.1539 3.57532C12.0496 3.57532 11.9464 3.55411 11.8505 3.513C11.7547 3.47188 11.6682 3.41171 11.5964 3.33613C11.5245 3.26056 11.4688 3.17117 11.4325 3.07338C11.3963 2.9756 11.3803 2.87146 11.3855 2.76731V0.808006ZM17.0687 1.99605C17.1153 1.90294 17.1804 1.82032 17.26 1.75324C17.3397 1.68617 17.4322 1.63604 17.5318 1.60594C17.6315 1.57584 17.7363 1.56639 17.8397 1.57817C17.9432 1.58995 18.0432 1.62272 18.1335 1.67446C18.2239 1.72621 18.3027 1.79584 18.3652 1.87911C18.4277 1.96238 18.4726 2.05752 18.4971 2.15873C18.5216 2.25993 18.5251 2.36507 18.5076 2.4677C18.49 2.57033 18.4517 2.66831 18.395 2.75563L17.4095 4.46174C17.3608 4.55144 17.2946 4.63049 17.2148 4.69422C17.135 4.75795 17.0433 4.80509 16.9451 4.83284C16.8468 4.8606 16.744 4.86842 16.6427 4.85585C16.5414 4.84327 16.4436 4.81056 16.3551 4.75963C16.2667 4.70869 16.1893 4.64057 16.1275 4.55928C16.0657 4.47798 16.0209 4.38515 15.9955 4.28625C15.9702 4.18735 15.9649 4.08438 15.9799 3.98341C15.995 3.88243 16.0301 3.78548 16.0832 3.69827L17.0687 1.99411V1.99605ZM21.3885 5.87182C21.5644 5.77006 21.7735 5.74234 21.9698 5.79475C22.1661 5.84716 22.3336 5.97542 22.4353 6.1513C22.5371 6.32718 22.5648 6.53628 22.5124 6.7326C22.46 6.92893 22.3317 7.09639 22.1559 7.19814L20.4517 8.18364C20.3646 8.23479 20.2683 8.26829 20.1683 8.28222C20.0682 8.29615 19.9664 8.29025 19.8687 8.26484C19.7709 8.23943 19.6791 8.19501 19.5985 8.13413C19.518 8.07325 19.4502 7.99709 19.399 7.91C19.3479 7.82291 19.3144 7.7266 19.3004 7.62657C19.2865 7.52653 19.2924 7.42473 19.3178 7.32698C19.3432 7.22923 19.3876 7.13744 19.4485 7.05686C19.5094 6.97627 19.5856 6.90846 19.6726 6.85731L21.3885 5.87182ZM23.192 11.3875C23.2961 11.3822 23.4003 11.3982 23.4981 11.4345C23.5958 11.4707 23.6852 11.5264 23.7608 11.5983C23.8364 11.6702 23.8966 11.7567 23.9377 11.8525C23.9788 11.9483 24 12.0515 24 12.1558C24 12.2601 23.9788 12.3633 23.9377 12.4591C23.8966 12.555 23.8364 12.6414 23.7608 12.7133C23.6852 12.7852 23.5958 12.8409 23.4981 12.8772C23.4003 12.9134 23.2961 12.9294 23.192 12.9241H21.2229C21.1188 12.9294 21.0147 12.9134 20.9169 12.8772C20.8191 12.8409 20.7297 12.7852 20.6541 12.7133C20.5786 12.6414 20.5184 12.555 20.4773 12.4591C20.4361 12.3633 20.4149 12.2601 20.4149 12.1558C20.4149 12.0515 20.4361 11.9483 20.4773 11.8525C20.5184 11.7567 20.5786 11.6702 20.6541 11.5983C20.7297 11.5264 20.8191 11.4707 20.9169 11.4345C21.0147 11.3982 21.1188 11.3822 21.2229 11.3875H23.192ZM21.9942 17.0706C22.0859 17.1181 22.1671 17.1837 22.2328 17.2634C22.2985 17.3432 22.3474 17.4354 22.3765 17.5345C22.4056 17.6336 22.4144 17.7376 22.4023 17.8401C22.3901 17.9427 22.3574 18.0418 22.3059 18.1314C22.2545 18.221 22.1854 18.2992 22.103 18.3614C22.0205 18.4236 21.9263 18.4685 21.826 18.4933C21.7257 18.5181 21.6215 18.5223 21.5195 18.5058C21.4175 18.4892 21.32 18.4522 21.2327 18.397L19.5266 17.4115C19.4343 17.3644 19.3526 17.2992 19.2863 17.2196C19.22 17.1401 19.1706 17.048 19.1409 16.9488C19.1113 16.8496 19.1021 16.7454 19.1138 16.6425C19.1256 16.5397 19.1581 16.4403 19.2094 16.3504C19.2607 16.2604 19.3297 16.1818 19.4123 16.1193C19.4948 16.0569 19.5892 16.0118 19.6896 15.9868C19.7901 15.9618 19.8946 15.9575 19.9968 15.974C20.099 15.9906 20.1968 16.0277 20.2842 16.0832L21.9884 17.0687L21.9942 17.0706ZM18.1204 21.3885C18.2222 21.5644 18.2499 21.7735 18.1975 21.9698C18.145 22.1661 18.0168 22.3336 17.8409 22.4353C17.665 22.5371 17.4559 22.5648 17.2596 22.5124C17.0633 22.46 16.8958 22.3317 16.7941 22.1559L15.8047 20.4517C15.7535 20.3646 15.72 20.2683 15.7061 20.1683C15.6922 20.0682 15.6981 19.9664 15.7235 19.8687C15.7489 19.7709 15.7933 19.6791 15.8542 19.5986C15.9151 19.518 15.9912 19.4502 16.0783 19.399C16.2542 19.2957 16.4639 19.2665 16.6613 19.3178C16.7591 19.3432 16.8509 19.3876 16.9315 19.4485C17.012 19.5094 17.0798 19.5856 17.131 19.6726L18.1165 21.3788L18.1204 21.3885ZM12.6047 23.192C12.61 23.2961 12.594 23.4003 12.5578 23.4981C12.5215 23.5958 12.4658 23.6852 12.3939 23.7608C12.322 23.8364 12.2356 23.8966 12.1397 23.9377C12.0439 23.9788 11.9407 24 11.8364 24C11.7321 24 11.6289 23.9788 11.5331 23.9377C11.4372 23.8966 11.3508 23.8364 11.2789 23.7608C11.207 23.6852 11.1513 23.5958 11.115 23.4981C11.0788 23.4003 11.0628 23.2961 11.0681 23.192V21.2229C11.0628 21.1188 11.0788 21.0147 11.115 20.9169C11.1513 20.8191 11.207 20.7297 11.2789 20.6541C11.3508 20.5786 11.4372 20.5184 11.5331 20.4773C11.6289 20.4361 11.7321 20.4149 11.8364 20.4149C11.9407 20.4149 12.0439 20.4361 12.1397 20.4773C12.2356 20.5184 12.322 20.5786 12.3939 20.6541C12.4658 20.7297 12.5215 20.8191 12.5578 20.9169C12.594 21.0147 12.61 21.1188 12.6047 21.2229V23.192ZM6.92158 21.9942C6.81605 22.1609 6.65025 22.2804 6.45875 22.3278C6.26725 22.3752 6.06485 22.3468 5.89377 22.2485C5.72269 22.1503 5.59615 21.9898 5.54053 21.8006C5.48491 21.6113 5.50451 21.4079 5.59525 21.2327L6.58075 19.5266C6.62658 19.4323 6.69127 19.3485 6.77082 19.2803C6.85036 19.2121 6.94307 19.1609 7.04319 19.13C7.14331 19.0991 7.24872 19.0891 7.35288 19.1005C7.45704 19.112 7.55773 19.1447 7.64872 19.1967C7.73971 19.2487 7.81906 19.3188 7.88186 19.4027C7.94465 19.4866 7.98954 19.5825 8.01376 19.6844C8.03798 19.7864 8.04101 19.8922 8.02266 19.9954C8.00431 20.0985 7.96497 20.1969 7.90708 20.2842L6.92158 21.9884V21.9942ZM2.60176 18.1204C2.51468 18.1708 2.41852 18.2035 2.31877 18.2167C2.21903 18.23 2.11767 18.2234 2.02046 18.1975C1.92325 18.1715 1.8321 18.1267 1.75223 18.0655C1.67235 18.0043 1.6053 17.928 1.55492 17.8409C1.50453 17.7538 1.47179 17.6577 1.45857 17.5579C1.44535 17.4582 1.4519 17.3568 1.47785 17.2596C1.5038 17.1624 1.54865 17.0713 1.60983 16.9914C1.671 16.9115 1.74731 16.8444 1.8344 16.7941L3.53467 15.8047C3.62202 15.7535 3.71858 15.7201 3.81885 15.7062C3.91912 15.6924 4.02113 15.6985 4.11907 15.724C4.217 15.7496 4.30893 15.7943 4.38962 15.8554C4.4703 15.9165 4.53816 15.9929 4.58931 16.0803C4.64046 16.1676 4.67391 16.2642 4.68774 16.3644C4.70158 16.4647 4.69553 16.5667 4.66994 16.6647C4.64435 16.7626 4.59972 16.8545 4.5386 16.9352C4.47748 17.0159 4.40106 17.0837 4.31372 17.1349L2.60761 18.1204H2.60176ZM0.808006 12.6047C0.703852 12.61 0.599719 12.594 0.501935 12.5578C0.40415 12.5215 0.314756 12.4658 0.239183 12.3939C0.16361 12.322 0.103437 12.2356 0.06232 12.1397C0.0212028 12.0439 0 11.9407 0 11.8364C0 11.7321 0.0212028 11.6289 0.06232 11.5331C0.103437 11.4372 0.16361 11.3508 0.239183 11.2789C0.314756 11.207 0.40415 11.1513 0.501935 11.115C0.599719 11.0788 0.703852 11.0628 0.808006 11.0681H2.76731C2.87146 11.0628 2.9756 11.0788 3.07338 11.115C3.17117 11.1513 3.26056 11.207 3.33613 11.2789C3.41171 11.3508 3.47188 11.4372 3.513 11.5331C3.55411 11.6289 3.57532 11.7321 3.57532 11.8364C3.57532 11.9407 3.55411 12.0439 3.513 12.1397C3.47188 12.2356 3.41171 12.322 3.33613 12.3939C3.26056 12.4658 3.17117 12.5215 3.07338 12.5578C2.9756 12.594 2.87146 12.61 2.76731 12.6047H0.808006ZM1.99605 6.92158C1.90294 6.87497 1.82032 6.80986 1.75324 6.73022C1.68617 6.65058 1.63604 6.5581 1.60594 6.45842C1.57584 6.35875 1.56639 6.25397 1.57817 6.15052C1.58995 6.04707 1.62272 5.9471 1.67446 5.85675C1.72621 5.76639 1.79584 5.68755 1.87911 5.62503C1.96238 5.56251 2.05752 5.51764 2.15873 5.49317C2.25993 5.46869 2.36507 5.46512 2.4677 5.48267C2.57033 5.50022 2.66831 5.53853 2.75563 5.59525L4.46174 6.58075C4.55144 6.6295 4.63049 6.6957 4.69422 6.77546C4.75795 6.85522 4.80509 6.94692 4.83284 7.04517C4.8606 7.14342 4.86842 7.24623 4.85585 7.34754C4.84327 7.44886 4.81056 7.54664 4.75963 7.63512C4.70869 7.7236 4.64057 7.801 4.55928 7.86276C4.47798 7.92452 4.38515 7.96939 4.28625 7.99473C4.18735 8.02007 4.08438 8.02537 3.98341 8.01032C3.88243 7.99527 3.78548 7.96016 3.69827 7.90708L1.99605 6.92158Z" fill="#F8F8F8"/>
</svg>
