<svg width="134" height="52" viewBox="0 0 134 52" fill="none" xmlns="http://www.w3.org/2000/svg">
<g clip-path="url(#clip0_329_2653)">
<path fill-rule="evenodd" clip-rule="evenodd" d="M0.3 25H22.7C22.8657 25 23 25.1343 23 25.3V37.7C23 37.8657 22.8657 38 22.7 38H18.3C18.1343 38 18 38.1343 18 38.3V41.7C18 41.8657 17.8657 42 17.7 42H13.8C13.6343 42 13.5 41.8657 13.5 41.7V38.3C13.5 38.1343 13.3657 38 13.2 38H9.8C9.63431 38 9.5 38.1343 9.5 38.3V41.7C9.5 41.8657 9.36569 42 9.2 42H4.8C4.63432 42 4.5 41.8657 4.5 41.7V38.3C4.5 38.1343 4.36569 38 4.2 38H0.3C0.134315 38 0 37.8657 0 37.7V25.3C0 25.1343 0.134315 25 0.3 25ZM5 33.2V29.8C5 29.6343 5.13431 29.5 5.3 29.5H17.7C17.8657 29.5 18 29.6343 18 29.8V33.2C18 33.3657 17.8657 33.5 17.7 33.5H5.3C5.13432 33.5 5 33.3657 5 33.2Z" fill="url(#paint0_linear_329_2653)"/>
<path d="M5 22.2V19.3C5 19.1343 5.13431 19 5.3 19H22.7C22.8657 19 23 18.8657 23 18.7V14.3C23 14.1343 22.8657 14 22.7 14H0.3C0.134315 14 0 14.1343 0 14.3V22.2C0 22.3657 0.134315 22.5 0.3 22.5H4.7C4.86569 22.5 5 22.3657 5 22.2Z" fill="#389FFB"/>
</g>
<defs>
<linearGradient id="paint0_linear_329_2653" x1="11.5" y1="21.5" x2="11.5" y2="42" gradientUnits="userSpaceOnUse">
<stop stop-color="#389FFB"/>
<stop offset="1" stop-color="#FBD038"/>
</linearGradient>
<clipPath id="clip0_329_2653">
<rect width="23" height="28" fill="white" transform="translate(0 14)"/>
</clipPath>
</defs>
</svg>
